<svg xmlns="http://www.w3.org/2000/svg" xmlns:xlink="http://www.w3.org/1999/xlink" viewBox="0 0 186.632 45">
  <defs>
    <style>
      .cls-1 {
        fill: #405260;
      }

      .cls-2 {
        fill: url(#radial-gradient);
      }
    </style>
    <radialGradient id="radial-gradient" cx="0.5" cy="0.547" r="0.663" gradientUnits="objectBoundingBox">
      <stop offset="0" stop-color="#c1e1ec"/>
      <stop offset="0.07" stop-color="#b9dbe7"/>
      <stop offset="0.678" stop-color="#7cacbe"/>
      <stop offset="1" stop-color="#678d9e"/>
    </radialGradient>
  </defs>
  <g id="Symbol_1_1" data-name="Symbol 1 – 1" transform="translate(-343 -124)">
    <path id="Path_2" data-name="Path 2" class="cls-1" d="M12.094,139.936a7.855,7.855,0,0,1,0-15.707,7.855,7.855,0,0,1,0,15.707Zm7.708,1c0,.719,1.232,2.739,2.742,2.739h.978a.692.692,0,0,0,.689-.69V121.49h0a.69.69,0,0,0-.685-.652H20.492a.691.691,0,0,0-.686.652h0v1.747A9.719,9.719,0,0,0,12.082,120a12.083,12.083,0,0,0,0,24.165c2.936,0,6.135-1.139,7.72-3.236Zm11.65-3.078a11.178,11.178,0,0,0,6.353,2.082c2.022,0,4.112-1.048,4.112-2.872,0-2.435-4.554-2.815-7.415-3.787s-5.327-2.983-5.327-6.239c0-4.981,4.439-7.039,8.581-7.039a12.934,12.934,0,0,1,7.089,2.106.7.7,0,0,1,.236.984l-1.676,2.394a.7.7,0,0,1-.99.211,7.608,7.608,0,0,0-4.659-1.466c-2.813,0-4.05,1.168-4.05,2.614,0,1.735,1.979,2.281,4.3,2.872,4.04,1.088,8.446,2.4,8.446,7.349,0,4.389-4.106,7.1-8.643,7.1a14.523,14.523,0,0,1-8.821-2.782.743.743,0,0,1-.154-.987l1.668-2.381A.663.663,0,0,1,31.452,137.855Zm37.724,3.078c0,.719,1.232,2.739,2.742,2.739H72.9a.692.692,0,0,0,.69-.69V121.49h0a.69.69,0,0,0-.686-.652h-3.03a.69.69,0,0,0-.686.652h0v1.747A9.719,9.719,0,0,0,61.456,120a12.083,12.083,0,1,0,0,24.165c2.935,0,6.135-1.139,7.719-3.236Zm-7.708-1a7.855,7.855,0,1,1,7.684-7.854A7.77,7.77,0,0,1,61.468,139.936Zm39.27,1.735V130.55h0c0-6.269-3.955-10.5-10.262-10.5a7.663,7.663,0,0,0-6.345,3.236v-.021l-.005.017a2.47,2.47,0,0,0-2.743-2.395h-.973a.692.692,0,0,0-.69.69v21.493h0a.69.69,0,0,0,.686.652h3.03a.764.764,0,0,0,.136-.014c.02,0,.038-.013.058-.018a.551.551,0,0,0,.067-.021.653.653,0,0,0,.077-.04c.012-.008.025-.013.037-.02a.721.721,0,0,0,.085-.067l.014-.012a.7.7,0,0,0,.082-.095h0a.688.688,0,0,0,.129-.366h0v-12.7a6.1,6.1,0,0,1,12.194,0l0,10.612v0c0,.01,0,.02,0,.029v2.058h0a.689.689,0,0,0,.686.652h3.03a.754.754,0,0,0,.136-.014c.018,0,.035-.012.052-.016s.051-.014.074-.024a.728.728,0,0,0,.07-.038.442.442,0,0,0,.043-.023.8.8,0,0,0,.079-.063l.02-.017a.717.717,0,0,0,.077-.089.038.038,0,0,1,.006-.007.682.682,0,0,0,.128-.362.005.005,0,0,1,0,0h0v-1.4Zm23.634-.738c0,.719,1.231,2.739,2.741,2.739h.979a.692.692,0,0,0,.69-.69V121.49h0a.691.691,0,0,0-.686-.652h-3.03a.689.689,0,0,0-.686.652h0v1.747A9.721,9.721,0,0,0,116.65,120a12.083,12.083,0,0,0,0,24.165c2.936,0,6.135-1.139,7.719-3.236Zm-7.708-1a7.856,7.856,0,1,1,7.682-7.854A7.77,7.77,0,0,1,116.663,139.936Z" transform="translate(400.851 14.564)"/>
    <path id="Path_3" data-name="Path 3" class="cls-2" d="M118.1,23.823a10.588,10.588,0,1,0,10.588,10.588A10.588,10.588,0,0,0,118.1,23.823Zm-27.509,0a10.588,10.588,0,1,0,10.589,10.588A10.588,10.588,0,0,0,90.588,23.824ZM114.93,10.588A10.588,10.588,0,1,1,104.343,0,10.588,10.588,0,0,1,114.93,10.588Z" transform="translate(263 124)"/>
  </g>
</svg>
